<svg width="19" height="19" viewBox="0 0 19 19" fill="none" xmlns="http://www.w3.org/2000/svg">
<path d="M9.5 5.60742C7.125 5.60742 5.23242 7.53711 5.23242 9.875C5.23242 12.25 7.125 14.1426 9.5 14.1426C11.8379 14.1426 13.7676 12.25 13.7676 9.875C13.7676 7.53711 11.8379 5.60742 9.5 5.60742ZM9.5 12.6582C7.97852 12.6582 6.7168 11.4336 6.7168 9.875C6.7168 8.35352 7.94141 7.12891 9.5 7.12891C11.0215 7.12891 12.2461 8.35352 12.2461 9.875C12.2461 11.4336 11.0215 12.6582 9.5 12.6582ZM14.918 5.45898C14.918 4.90234 14.4727 4.45703 13.916 4.45703C13.3594 4.45703 12.9141 4.90234 12.9141 5.45898C12.9141 6.01562 13.3594 6.46094 13.916 6.46094C14.4727 6.46094 14.918 6.01562 14.918 5.45898ZM17.7383 6.46094C17.6641 5.125 17.3672 3.9375 16.4023 2.97266C15.4375 2.00781 14.25 1.71094 12.9141 1.63672C11.541 1.5625 7.42188 1.5625 6.04883 1.63672C4.71289 1.71094 3.5625 2.00781 2.56055 2.97266C1.5957 3.9375 1.29883 5.125 1.22461 6.46094C1.15039 7.83398 1.15039 11.9531 1.22461 13.3262C1.29883 14.6621 1.5957 15.8125 2.56055 16.8145C3.5625 17.7793 4.71289 18.0762 6.04883 18.1504C7.42188 18.2246 11.541 18.2246 12.9141 18.1504C14.25 18.0762 15.4375 17.7793 16.4023 16.8145C17.3672 15.8125 17.6641 14.6621 17.7383 13.3262C17.8125 11.9531 17.8125 7.83398 17.7383 6.46094ZM15.957 14.7734C15.6973 15.5156 15.1035 16.0723 14.3984 16.3691C13.2852 16.8145 10.6875 16.7031 9.5 16.7031C8.27539 16.7031 5.67773 16.8145 4.60156 16.3691C3.85938 16.0723 3.30273 15.5156 3.00586 14.7734C2.56055 13.6973 2.67188 11.0996 2.67188 9.875C2.67188 8.6875 2.56055 6.08984 3.00586 4.97656C3.30273 4.27148 3.85938 3.71484 4.60156 3.41797C5.67773 2.97266 8.27539 3.08398 9.5 3.08398C10.6875 3.08398 13.2852 2.97266 14.3984 3.41797C15.1035 3.67773 15.6602 4.27148 15.957 4.97656C16.4023 6.08984 16.291 8.6875 16.291 9.875C16.291 11.0996 16.4023 13.6973 15.957 14.7734Z" fill="white"/>
</svg>
