<svg width="14" height="14" viewBox="0 0 14 14" fill="none" xmlns="http://www.w3.org/2000/svg">
<path d="M8.41504 6.41406C8.80566 6.02344 9.00098 5.55208 9.00098 5C9.00098 4.44792 8.80566 3.97656 8.41504 3.58594C8.02441 3.19531 7.55306 3 7.00098 3C6.44889 3 5.97754 3.19531 5.58691 3.58594C5.19629 3.97656 5.00098 4.44792 5.00098 5C5.00098 5.55208 5.19629 6.02344 5.58691 6.41406C5.97754 6.80469 6.44889 7 7.00098 7C7.55306 7 8.02441 6.80469 8.41504 6.41406ZM11.001 5C11.001 5.56771 10.915 6.03385 10.7432 6.39844L7.89941 12.4453C7.81608 12.6172 7.69108 12.7526 7.52441 12.8516C7.36296 12.9505 7.18848 13 7.00098 13C6.81348 13 6.63639 12.9505 6.46973 12.8516C6.30827 12.7526 6.18848 12.6172 6.11035 12.4453L3.25879 6.39844C3.08691 6.03385 3.00098 5.56771 3.00098 5C3.00098 3.89583 3.3916 2.95312 4.17285 2.17187C4.9541 1.39062 5.89681 0.999999 7.00098 0.999999C8.10514 0.999999 9.04785 1.39062 9.8291 2.17187C10.6104 2.95312 11.001 3.89583 11.001 5Z" fill="white"/>
</svg>
